<?xml version="1.0" encoding="UTF-8" standalone="no"?>
<!-- Created with Inkscape (http://www.inkscape.org/) -->

<svg
   width="210mm"
   height="297mm"
   viewBox="0 0 210 297"
   version="1.1"
   id="svg5"
   inkscape:version="1.1.2 (b8e25be833, 2022-02-05)"
   sodipodi:docname="bottle side whall.svg"
   xmlns:inkscape="http://www.inkscape.org/namespaces/inkscape"
   xmlns:sodipodi="http://sodipodi.sourceforge.net/DTD/sodipodi-0.dtd"
   xmlns="http://www.w3.org/2000/svg"
   xmlns:svg="http://www.w3.org/2000/svg">
  <sodipodi:namedview
     id="namedview7"
     pagecolor="#ffffff"
     bordercolor="#666666"
     borderopacity="1.0"
     inkscape:pageshadow="2"
     inkscape:pageopacity="0.0"
     inkscape:pagecheckerboard="0"
     inkscape:document-units="mm"
     showgrid="false"
     inkscape:zoom="2"
     inkscape:cx="191.5"
     inkscape:cy="177.25"
     inkscape:window-width="1920"
     inkscape:window-height="991"
     inkscape:window-x="-9"
     inkscape:window-y="-9"
     inkscape:window-maximized="1"
     inkscape:current-layer="layer1" />
  <defs
     id="defs2" />
  <g
     inkscape:label="Livello 1"
     inkscape:groupmode="layer"
     id="layer1">
    <rect
       style="fill:none;stroke:#000000;stroke-width:0.02;stroke-miterlimit:4;stroke-dasharray:none;stroke-opacity:1"
       id="rect864"
       width="9.9802008"
       height="2.9802012"
       x="-94.139526"
       y="-63.286148"
       transform="scale(-1)" />
    <rect
       style="fill:none;stroke:#000000;stroke-width:0.02;stroke-miterlimit:4;stroke-dasharray:none;stroke-opacity:1"
       id="rect864-4"
       width="9.9802017"
       height="2.980201"
       x="-74.103127"
       y="-63.267395"
       transform="scale(-1)" />
    <rect
       style="fill:none;stroke:#000000;stroke-width:0.02;stroke-miterlimit:4;stroke-dasharray:none;stroke-opacity:1"
       id="rect864-1"
       width="9.9802017"
       height="2.980201"
       x="-54.067242"
       y="-63.267395"
       transform="scale(-1)" />
    <rect
       style="fill:none;stroke:#000000;stroke-width:0.02;stroke-miterlimit:4;stroke-dasharray:none;stroke-opacity:1"
       id="rect1241"
       width="24.210987"
       height="67.173157"
       x="14.4105"
       y="15.996427" />
    <g
       id="g930"
       transform="translate(-9.7830143)"
       style="stroke:#000000;stroke-opacity:1;stroke-width:0.02;stroke-miterlimit:4;stroke-dasharray:none;fill:none">
      <rect
         style="fill:none;stroke:#000000;stroke-width:0.02;stroke-miterlimit:4;stroke-dasharray:none;stroke-opacity:1"
         id="rect864-0-13"
         width="9.9802017"
         height="2.980201"
         x="-104.19366"
         y="-163.28529"
         transform="scale(-1)" />
      <rect
         style="fill:none;stroke:#000000;stroke-width:0.02;stroke-miterlimit:4;stroke-dasharray:none;stroke-opacity:1"
         id="rect864-4-3-7"
         width="9.9802017"
         height="2.980201"
         x="-84.157272"
         y="-163.26653"
         transform="scale(-1)" />
      <rect
         style="fill:none;stroke:#000000;stroke-width:0.02;stroke-miterlimit:4;stroke-dasharray:none;stroke-opacity:1"
         id="rect864-1-3-6"
         width="9.9802017"
         height="2.980201"
         x="-64.121399"
         y="160.28633"
         transform="scale(-1,1)" />
      <rect
         style="fill:none;stroke:#000000;stroke-width:0.02;stroke-miterlimit:4;stroke-dasharray:none;stroke-opacity:1"
         id="rect864-1-3-3-1"
         width="9.9802017"
         height="2.980201"
         x="-44.08704"
         y="160.28633"
         transform="scale(-1,1)" />
    </g>
    <path
       style="fill:none;stroke:#000000;stroke-width:0.02;stroke-linecap:butt;stroke-linejoin:miter;stroke-opacity:1;stroke-miterlimit:4;stroke-dasharray:none"
       id="box4529-endface2"
       d="M 6.2772801,10.286701 H 9.2772836 14.196283 V 7.2867028 h 10.197993 v 2.9999982 h 4.919003 4.919 V 7.2867028 h 10.197983 v 2.9999982 h 4.918973 4.918973 V 7.2867028 h 10.19794 v 2.9999982 h 4.918973 4.918973 V 7.2867028 h 10.19794 v 2.9999982 h 4.918973 4.918973 V 7.2867028 h 10.19797 v 2.9999982 h 4.919 3 v 5.094497 h -3 v 9.828995 h 3 v 5.0945 5.0945 h -3 v 9.829 h 3 v 5.0945 5.094503 h -3 v 9.829006 h 3 v 5.094503 5.0945 h -3 v 9.829 h 3 v 5.0945 5.0945 h -3 v 9.828995 h 3 v 5.0945 5.09451 h -3 v 9.82906 h 3 v 5.09453 5.09453 h -3 v 9.82905 h 3 v 5.09453 5.09453 h -3 v 9.82903 h 3 v 5.0945 5.0945 h -3 v 9.829 h 3 v 5.0945 5.0945 h -3 v 9.829 h 3 v 5.0945 h -3 -4.919 v 3 H 94.33998 v -3 h -4.918973 -4.918973 v 3 h -10.19794 v -3 h -4.918973 -4.918973 v 3 h -10.19794 v -3 h -4.918973 -4.918973 v 3 H 34.232279 v -3 h -4.919 -4.919003 v 3 H 14.196283 v -3 H 9.2772836 6.2772801 v -5.0945 h 3.0000035 v -9.829 H 6.2772801 v -5.0945 -5.0945 h 3.0000035 v -9.829 H 6.2772801 v -5.0945 -5.0945 h 3.0000035 v -9.82903 H 6.2772801 v -5.09453 -5.09453 h 3.0000035 v -9.82905 H 6.2772801 v -5.09453 -5.09453 h 3.0000035 v -9.82906 H 6.2772801 v -5.09451 -5.0945 H 9.2772836 V 95.453205 H 6.2772801 v -5.0945 -5.0945 h 3.0000035 v -9.829 H 6.2772801 v -5.0945 -5.094503 H 9.2772836 V 55.417196 H 6.2772801 v -5.094503 -5.0945 h 3.0000035 v -9.829 H 6.2772801 v -5.0945 -5.0945 H 9.2772836 V 15.381198 H 6.2772801 v -5.094497" />
    <g
       id="g1490"
       transform="translate(-8.9292349,17.462505)"
       style="stroke:#000000;stroke-opacity:1;stroke-width:0.02;stroke-miterlimit:4;stroke-dasharray:none;fill:none">
      <rect
         style="fill:none;stroke:#000000;stroke-width:0.02;stroke-miterlimit:4;stroke-dasharray:none;stroke-opacity:1"
         id="rect864-3"
         width="5.8848901"
         height="2.8848898"
         x="-58.000523"
         y="-21.130194"
         transform="scale(-1)" />
      <rect
         style="fill:none;stroke:#000000;stroke-width:0.02;stroke-miterlimit:4;stroke-dasharray:none;stroke-opacity:1"
         id="rect864-3-5"
         width="5.8848901"
         height="2.8848898"
         x="-91.885414"
         y="-21.130194"
         transform="scale(-1)" />
    </g>
  </g>
</svg>
