<?xml version="1.0" encoding="UTF-8" standalone="no"?>
<!-- Created with Inkscape (http://www.inkscape.org/) -->

<svg
   width="210mm"
   height="297mm"
   viewBox="0 0 210 297"
   version="1.1"
   id="svg5"
   inkscape:version="1.1.2 (b8e25be833, 2022-02-05)"
   sodipodi:docname="bottom shelf.svg"
   xmlns:inkscape="http://www.inkscape.org/namespaces/inkscape"
   xmlns:sodipodi="http://sodipodi.sourceforge.net/DTD/sodipodi-0.dtd"
   xmlns="http://www.w3.org/2000/svg"
   xmlns:svg="http://www.w3.org/2000/svg">
  <sodipodi:namedview
     id="namedview7"
     pagecolor="#ffffff"
     bordercolor="#666666"
     borderopacity="1.0"
     inkscape:pageshadow="2"
     inkscape:pageopacity="0.0"
     inkscape:pagecheckerboard="0"
     inkscape:document-units="mm"
     showgrid="false"
     inkscape:zoom="1.4142136"
     inkscape:cx="334.4615"
     inkscape:cy="473.40798"
     inkscape:window-width="1920"
     inkscape:window-height="991"
     inkscape:window-x="-9"
     inkscape:window-y="-9"
     inkscape:window-maximized="1"
     inkscape:current-layer="layer1"
     inkscape:snap-bbox="false"
     showguides="false" />
  <defs
     id="defs2" />
  <g
     inkscape:label="Livello 1"
     inkscape:groupmode="layer"
     id="layer1">
    <path
       id="rect172"
       style="fill:#ffffff;fill-rule:evenodd;stroke:#000000;stroke-width:0.0755906;stroke-miterlimit:4;stroke-dasharray:none;stroke-opacity:1"
       d="M 187.34375 65.103516 L 187.34375 76.367188 L 130.81445 76.367188 L 130.81445 132.9082 L 119.62109 132.9082 L 119.62109 170.62891 L 130.81445 170.62891 L 130.81445 208.62891 L 119.62109 208.62891 L 119.62109 246.34961 L 130.81445 246.34961 L 130.81445 284.35547 L 119.62109 284.35547 L 119.62109 322.07617 L 130.81445 322.07617 L 130.81445 360.08398 L 119.55078 360.08398 L 119.55078 397.80469 L 130.81445 397.80469 L 130.81445 416.52539 L 508.76758 416.52539 L 508.76758 397.80469 L 519.94727 397.80469 L 519.94727 360.08398 L 508.76758 360.08398 L 508.76758 322.07617 L 520.01953 322.07617 L 520.01953 284.35547 L 508.76758 284.35547 L 508.76758 246.34961 L 520.01758 246.34961 L 520.01758 208.62891 L 508.76758 208.62891 L 508.76758 170.62891 L 520.01758 170.62891 L 520.01758 132.9082 L 508.76758 132.9082 L 508.76758 76.367188 L 452.23828 76.367188 L 452.23828 65.173828 L 414.51758 65.173828 L 414.51758 76.367188 L 376.50977 76.367188 L 376.50977 65.103516 L 338.79102 65.103516 L 338.79102 76.367188 L 300.78516 76.367188 L 300.78516 65.103516 L 263.06445 65.103516 L 263.06445 76.367188 L 225.06445 76.367188 L 225.06445 65.103516 L 187.34375 65.103516 z "
       transform="scale(0.26458333)" />
  </g>
</svg>
