<?xml version="1.0" encoding="UTF-8" standalone="no"?>
<!-- Created with Inkscape (http://www.inkscape.org/) -->

<svg
   width="210mm"
   height="297mm"
   viewBox="0 0 210 297"
   version="1.1"
   id="svg5"
   inkscape:version="1.1.2 (b8e25be833, 2022-02-05)"
   sodipodi:docname="bottle holders.svg"
   xmlns:inkscape="http://www.inkscape.org/namespaces/inkscape"
   xmlns:sodipodi="http://sodipodi.sourceforge.net/DTD/sodipodi-0.dtd"
   xmlns="http://www.w3.org/2000/svg"
   xmlns:svg="http://www.w3.org/2000/svg">
  <sodipodi:namedview
     id="namedview7"
     pagecolor="#ffffff"
     bordercolor="#666666"
     borderopacity="1.0"
     inkscape:pageshadow="2"
     inkscape:pageopacity="0.0"
     inkscape:pagecheckerboard="0"
     inkscape:document-units="mm"
     showgrid="false"
     inkscape:zoom="1.4218013"
     inkscape:cx="272.89327"
     inkscape:cy="127.65497"
     inkscape:window-width="1920"
     inkscape:window-height="991"
     inkscape:window-x="-9"
     inkscape:window-y="-9"
     inkscape:window-maximized="1"
     inkscape:current-layer="layer1" />
  <defs
     id="defs2" />
  <g
     inkscape:label="Livello 1"
     inkscape:groupmode="layer"
     id="layer1">
    <path
       id="rect846"
       style="fill:none;stroke:#000000;stroke-width:0.02"
       d="M 1.0330117,0.69763184 V 6.6771117 H 4.0126748 V 34.718294 H 1.0330117 v 5.97948 H 4.0126748 44.012298 84.01244 v -0.04393 L 73.922099,35.605061 c -2.718736,1.668073 -5.841886,2.560862 -9.031488,2.581754 -8.959228,-0.04329 -16.436814,-6.850203 -17.319355,-15.765962 l -0.114723,-1.756482 0.116789,-1.711006 c 0.892588,-8.90659 8.366189,-15.7015441 17.317289,-15.7447754 3.19809,0.00286 6.334172,0.8825966 9.067146,2.5435139 L 84.01244,0.72140299 V 0.69763184 H 44.012298 4.0126748 Z" />
    <path
       id="rect846-9"
       style="fill:none;stroke:#000000;stroke-width:0.02"
       d="m 0.91105523,42.758113 v 5.97948 H 3.8907183 V 76.778775 H 0.91105523 v 5.97948 H 3.8907183 43.890343 83.889967 v -0.04393 L 43.984911,62.748106 83.889967,42.781884 v -0.02377 H 43.890343 3.8907183 Z" />
  </g>
</svg>
