<?xml version="1.0" encoding="UTF-8" standalone="no"?>
<!-- Created with Inkscape (http://www.inkscape.org/) -->

<svg
   width="210mm"
   height="297mm"
   viewBox="0 0 210 297"
   version="1.1"
   id="svg5"
   inkscape:version="1.1.2 (b8e25be833, 2022-02-05)"
   sodipodi:docname="box base.svg"
   xmlns:inkscape="http://www.inkscape.org/namespaces/inkscape"
   xmlns:sodipodi="http://sodipodi.sourceforge.net/DTD/sodipodi-0.dtd"
   xmlns="http://www.w3.org/2000/svg"
   xmlns:svg="http://www.w3.org/2000/svg">
  <sodipodi:namedview
     id="namedview7"
     pagecolor="#ffffff"
     bordercolor="#666666"
     borderopacity="1.0"
     inkscape:pageshadow="2"
     inkscape:pageopacity="0.0"
     inkscape:pagecheckerboard="0"
     inkscape:document-units="mm"
     showgrid="false"
     inkscape:zoom="0.71090067"
     inkscape:cx="396.67989"
     inkscape:cy="229.98994"
     inkscape:window-width="1920"
     inkscape:window-height="991"
     inkscape:window-x="-9"
     inkscape:window-y="-9"
     inkscape:window-maximized="1"
     inkscape:current-layer="layer1" />
  <defs
     id="defs2" />
  <g
     inkscape:label="Livello 1"
     inkscape:groupmode="layer"
     id="layer1">
    <path
       style="fill:none;stroke:#000000;stroke-width:0.02;stroke-linecap:butt;stroke-linejoin:miter;stroke-miterlimit:4;stroke-dasharray:none;stroke-opacity:1"
       id="box4529-longside1"
       d="m 13.701353,12.06414 v -3 h 3 5.099 v 3 h 9.838 v -3 h 5.099 5.099 v 3 h 9.838 v -3 h 5.098983 5.098973 v 3 h 9.837943 v -3 h 5.09897 5.098973 v 3 h 9.837943 v -3 h 5.09897 5.098982 v 3 h 9.838 v -3 h 5.099 3 v 3 5.099 h -3 v 9.838 h 3 v 5.099 5.099 h -3 v 9.838 h 3 v 5.099 5.099 h -3 v 9.838 h 3 v 5.099 5.099 h -3 v 9.838 h 3 v 5.099 5.099 h -3 v 9.838 h 3 v 5.099 3 h -3 -5.099 v -3 h -9.838 v 3 h -5.098982 -5.09897 v -3 h -9.837943 v 3 h -5.098973 -5.09897 v -3 h -9.837943 v 3 h -5.098973 -5.098983 v -3 h -9.838 v 3 h -5.099 -5.099 v -3 h -9.838 v 3 h -5.099 -3 v -3 -5.099 h 3 v -9.838 h -3 v -5.099 -5.099 h 3 v -9.838 h -3 v -5.099 -5.099 h 3 v -9.838 h -3 v -5.099 -5.099 h 3 v -9.838 h -3 v -5.099 -5.099 h 3 v -9.838 h -3 v -5.099" />
  </g>
</svg>
