<?xml version="1.0" encoding="UTF-8" standalone="no"?>
<!-- Created with Inkscape (http://www.inkscape.org/) -->

<svg
   width="210mm"
   height="297mm"
   viewBox="0 0 210 297"
   version="1.1"
   id="svg5"
   inkscape:version="1.1.2 (b8e25be833, 2022-02-05)"
   sodipodi:docname="front whall with senors.svg"
   xmlns:inkscape="http://www.inkscape.org/namespaces/inkscape"
   xmlns:sodipodi="http://sodipodi.sourceforge.net/DTD/sodipodi-0.dtd"
   xmlns="http://www.w3.org/2000/svg"
   xmlns:svg="http://www.w3.org/2000/svg">
  <sodipodi:namedview
     id="namedview7"
     pagecolor="#ffffff"
     bordercolor="#666666"
     borderopacity="1.0"
     inkscape:pageshadow="2"
     inkscape:pageopacity="0.0"
     inkscape:pagecheckerboard="0"
     inkscape:document-units="mm"
     showgrid="false"
     inkscape:zoom="0.71090067"
     inkscape:cx="-12.659996"
     inkscape:cy="536.64318"
     inkscape:window-width="1920"
     inkscape:window-height="991"
     inkscape:window-x="-9"
     inkscape:window-y="-9"
     inkscape:window-maximized="1"
     inkscape:current-layer="layer1" />
  <defs
     id="defs2" />
  <g
     inkscape:label="Livello 1"
     inkscape:groupmode="layer"
     id="layer1">
    <path
       style="fill:none;stroke:#000000;stroke-width:0.02;stroke-linecap:butt;stroke-linejoin:miter;stroke-miterlimit:4;stroke-dasharray:none;stroke-opacity:1"
       id="box4529-base"
       d="M 8.7147056,6.5946732 H 13.633679 V 3.594675 h 10.197945 v 2.9999982 h 4.918975 4.918976 V 3.594675 H 43.86752 v 2.9999982 h 4.91896 4.918983 V 3.594675 h 10.197943 v 2.9999982 h 4.91897 4.918973 V 3.594675 h 10.197943 v 2.9999982 h 4.918973 4.91897 V 3.594675 h 10.198045 v 2.9999982 h 4.91902 v 4.9145008 h 3.00002 v 10.189 h -3.00002 v 4.914493 4.91453 h 3.00002 v 10.189061 h -3.00002 v 4.914533 4.914533 h 3.00002 v 10.18906 h -3.00002 v 4.914533 4.914533 h 3.00002 v 10.189071 h -3.00002 v 4.91453 4.91453 h 3.00002 v 10.189089 h -3.00002 v 4.91459 4.91457 h 3.00002 v 10.18918 h -3.00002 v 4.91458 4.91459 h 3.00002 v 10.18917 h -3.00002 v 4.91459 4.91456 h 3.00002 v 10.18912 h -3.00002 v 4.91454 4.91453 h 3.00002 v 10.18902 h -3.00002 v 4.9145 4.9145 h 3.00002 v 10.189 h -3.00002 v 4.9145 h -4.91902 v 3 H 93.777235 v -3 h -4.91897 -4.918973 v 3 H 73.741349 v -3 h -4.918973 -4.91897 v 3 H 53.705463 v -3 H 48.78648 43.86752 v 3 H 33.669575 v -3 h -4.918976 -4.918975 v 3 H 13.633679 v -3 H 8.7147056 v -4.9145 H 5.714704 v -10.189 h 3.0000016 v -4.9145 -4.9145 H 5.714704 v -10.18902 h 3.0000016 v -4.91453 -4.91454 H 5.714704 V 151.6365 h 3.0000016 v -4.91456 -4.91459 H 5.714704 v -10.18917 h 3.0000016 v -4.91459 -4.91458 H 5.714704 v -10.18918 h 3.0000016 v -4.91457 -4.91459 H 5.714704 V 91.581581 h 3.0000016 v -4.91453 -4.91453 H 5.714704 V 71.56345 H 8.7147056 V 66.648917 61.734384 H 5.714704 V 51.545324 H 8.7147056 V 46.630791 41.716258 H 5.714704 V 31.527197 h 3.0000016 v -4.91453 -4.914493 H 5.714704 v -10.189 H 8.7147056 V 6.5946732" />
    <rect
       style="fill:none;stroke:#000000;stroke-width:0.02;stroke-miterlimit:4;stroke-dasharray:none;stroke-opacity:1"
       id="rect864-0"
       width="9.9802017"
       height="2.980201"
       x="-93.576782"
       y="-159.5928"
       transform="scale(-1)" />
    <rect
       style="fill:none;stroke:#000000;stroke-width:0.02;stroke-miterlimit:4;stroke-dasharray:none;stroke-opacity:1"
       id="rect864-4-3"
       width="9.9802017"
       height="2.980201"
       x="-73.540375"
       y="-159.57405"
       transform="scale(-1)" />
    <rect
       style="fill:none;stroke:#000000;stroke-width:0.02;stroke-miterlimit:4;stroke-dasharray:none;stroke-opacity:1"
       id="rect864-1-3"
       width="9.9802017"
       height="2.980201"
       x="-53.504501"
       y="156.59387"
       transform="scale(-1,1)" />
    <rect
       style="fill:none;stroke:#000000;stroke-width:0.02;stroke-miterlimit:4;stroke-dasharray:none;stroke-opacity:1"
       id="rect864-1-3-3"
       width="9.9802017"
       height="2.980201"
       x="-33.470123"
       y="156.59387"
       transform="scale(-1,1)" />
    <g
       id="g4815"
       transform="translate(-22.703008,-34.133459)">
      <circle
         style="fill:none;stroke:#000000;stroke-width:0.0199203"
         id="path1203"
         cx="48.547329"
         cy="128.11313"
         r="2.4900398" />
      <circle
         style="fill:none;stroke:#000000;stroke-width:0.0199203"
         id="path1203-1"
         cx="41.027328"
         cy="128.11313"
         r="2.4900398" />
    </g>
    <path
       id="path5200"
       style="fill:none;stroke:#000000;stroke-width:0.02"
       d="m 39.109033,92.066236 a 2.2417239,2.2417239 0 0 0 -0.06098,0.002 h 0.150379 a 2.2417239,2.2417239 0 0 0 -0.0894,-0.002 z m -2.241206,0.25218 v 1.99988 a 2.2417239,2.2417239 0 0 0 2.241206,2.23139 2.2417239,2.2417239 0 0 0 2.241208,-2.23139 h 0.01757 v -1.99988 z" />
  </g>
</svg>
