<?xml version="1.0" encoding="UTF-8" standalone="no"?>
<!-- Created with Inkscape (http://www.inkscape.org/) -->

<svg
   width="210mm"
   height="297mm"
   viewBox="0 0 210 297"
   version="1.1"
   id="svg5"
   inkscape:version="1.1.2 (b8e25be833, 2022-02-05)"
   sodipodi:docname="motor shelf 3.svg"
   xmlns:inkscape="http://www.inkscape.org/namespaces/inkscape"
   xmlns:sodipodi="http://sodipodi.sourceforge.net/DTD/sodipodi-0.dtd"
   xmlns="http://www.w3.org/2000/svg"
   xmlns:svg="http://www.w3.org/2000/svg">
  <sodipodi:namedview
     id="namedview7"
     pagecolor="#ffffff"
     bordercolor="#666666"
     borderopacity="1.0"
     inkscape:pageshadow="2"
     inkscape:pageopacity="0.0"
     inkscape:pagecheckerboard="0"
     inkscape:document-units="mm"
     showgrid="false"
     inkscape:zoom="2.8436027"
     inkscape:cx="168.79995"
     inkscape:cy="212.58244"
     inkscape:window-width="1920"
     inkscape:window-height="991"
     inkscape:window-x="-9"
     inkscape:window-y="-9"
     inkscape:window-maximized="1"
     inkscape:current-layer="layer1" />
  <defs
     id="defs2" />
  <g
     inkscape:label="Livello 1"
     inkscape:groupmode="layer"
     id="layer1">
    <path
       style="fill:none;stroke:#000000;stroke-width:0.02;stroke-miterlimit:4;stroke-dasharray:none;stroke-opacity:1"
       d="M 108.42157,4.6243013 H 8.2420853 c 0,9.8381947 0,9.8381947 0,0 V 14.462496 H 5.2422832 v 5.09891 5.09944 h 2.9998021 v 9.83764 H 5.2422832 v 5.09943 5.09891 h 2.9998021 v 9.83816 H 5.2422832 v 5.09891 5.09892 h 2.9998021 l 0.0455,5.0331 100.1339847,-0.0329 v -5.00021 h 2.99984 v -5.09892 -5.09891 h -2.99984 v -9.83816 h 2.99984 v -5.09891 -5.09943 h -2.99984 v -9.83764 h 2.99984 v -5.09944 -5.09891 h -2.99984 v -9.8381947 0 c 0,9.8381947 0,9.8381947 0,0 z"
       id="path2478"
       sodipodi:nodetypes="cccccccccccccccccccccccccccccccccccccc" />
    <rect
       style="fill:none;stroke:#000000;stroke-width:0.0189019;stroke-miterlimit:4;stroke-dasharray:none;stroke-opacity:1"
       id="rect1966-4"
       width="5.7810979"
       height="2.7810981"
       x="67.333641"
       y="64.933228" />
    <rect
       style="fill:none;stroke:#000000;stroke-width:0.0189019;stroke-miterlimit:4;stroke-dasharray:none;stroke-opacity:1"
       id="rect1966-6-0"
       width="5.7810979"
       height="2.7810981"
       x="43.3489"
       y="64.933228" />
  </g>
</svg>
