<?xml version="1.0" encoding="UTF-8" standalone="no"?>
<!-- Created with Inkscape (http://www.inkscape.org/) -->

<svg
   width="210mm"
   height="297mm"
   viewBox="0 0 210 297"
   version="1.1"
   id="svg5"
   inkscape:version="1.1.2 (b8e25be833, 2022-02-05)"
   sodipodi:docname="opposite door whall.svg"
   xmlns:inkscape="http://www.inkscape.org/namespaces/inkscape"
   xmlns:sodipodi="http://sodipodi.sourceforge.net/DTD/sodipodi-0.dtd"
   xmlns="http://www.w3.org/2000/svg"
   xmlns:svg="http://www.w3.org/2000/svg">
  <sodipodi:namedview
     id="namedview7"
     pagecolor="#ffffff"
     bordercolor="#666666"
     borderopacity="1.0"
     inkscape:pageshadow="2"
     inkscape:pageopacity="0.0"
     inkscape:pagecheckerboard="0"
     inkscape:document-units="mm"
     showgrid="false"
     inkscape:zoom="1.0053653"
     inkscape:cx="48.738501"
     inkscape:cy="681.84169"
     inkscape:window-width="1920"
     inkscape:window-height="991"
     inkscape:window-x="-9"
     inkscape:window-y="-9"
     inkscape:window-maximized="1"
     inkscape:current-layer="layer1" />
  <defs
     id="defs2" />
  <g
     inkscape:label="Livello 1"
     inkscape:groupmode="layer"
     id="layer1">
    <rect
       style="fill:none;stroke:#000000;stroke-width:0.02;stroke-miterlimit:4;stroke-dasharray:none;stroke-opacity:1"
       id="rect864"
       width="9.9802008"
       height="2.9802012"
       x="-89.094902"
       y="-58.8573"
       transform="scale(-1)" />
    <rect
       style="fill:none;stroke:#000000;stroke-width:0.02;stroke-miterlimit:4;stroke-dasharray:none;stroke-opacity:1"
       id="rect864-4"
       width="9.9802017"
       height="2.980201"
       x="-69.058449"
       y="-58.838547"
       transform="scale(-1)" />
    <rect
       style="fill:none;stroke:#000000;stroke-width:0.02;stroke-miterlimit:4;stroke-dasharray:none;stroke-opacity:1"
       id="rect864-1"
       width="9.9802017"
       height="2.980201"
       x="-49.02256"
       y="-58.838547"
       transform="scale(-1)" />
    <path
       style="fill:none;stroke:#000000;stroke-width:0.02;stroke-linecap:butt;stroke-linejoin:miter;stroke-miterlimit:4;stroke-dasharray:none;stroke-opacity:1"
       id="box4529-endface2"
       d="M 1.2326131,5.8578359 H 4.2326153 9.1516116 V 2.8578393 H 19.349604 v 2.9999966 h 4.919003 4.919 V 2.8578393 H 39.38559 v 2.9999966 h 4.918973 4.918973 V 2.8578393 h 10.19794 v 2.9999966 h 4.918973 4.918973 V 2.8578393 h 10.197885 v 2.9999966 h 4.918943 4.918953 V 2.8578393 h 10.19791 v 2.9999966 h 4.918997 3 V 10.95233 h -3 v 9.828998 h 3 v 5.094503 5.094503 h -3 v 9.829003 h 3 v 5.0945 5.094503 h -3 v 9.829006 h 3 v 5.094503 5.0945 h -3 v 9.829 h 3 v 5.0945 5.0945 h -3 v 9.829001 h 3 v 5.09453 5.09453 h -3 v 9.82912 h 3 v 5.09456 5.09453 h -3 v 9.82905 h 3 v 5.09453 5.09453 h -3 v 9.82903 h 3 v 5.0945 5.0945 h -3 v 9.829 h 3 v 5.0945 5.0945 h -3 v 9.829 h 3 v 5.0945 h -3 -4.918997 v 3 h -10.19791 v -3 H 84.37625 79.457307 v 3 H 69.259422 v -3 h -4.918973 -4.918973 v 3 h -10.19794 v -3 H 44.304563 39.38559 v 3 H 29.187607 v -3 h -4.919 -4.919003 v 3 H 9.1516116 v -3 H 4.2326153 1.2326131 v -5.0945 h 3.0000022 v -9.829 H 1.2326131 v -5.0945 -5.0945 h 3.0000022 v -9.829 H 1.2326131 v -5.0945 -5.0945 h 3.0000022 v -9.82903 H 1.2326131 v -5.09453 -5.09453 h 3.0000022 v -9.82905 H 1.2326131 v -5.09453 -5.09456 h 3.0000022 v -9.82912 H 1.2326131 v -5.09453 -5.09453 H 4.2326153 V 91.024349 H 1.2326131 v -5.0945 -5.0945 h 3.0000022 v -9.829 H 1.2326131 v -5.0945 -5.094503 H 4.2326153 V 50.98834 H 1.2326131 v -5.094503 -5.0945 H 4.2326153 V 30.970334 H 1.2326131 V 25.875831 20.781328 H 4.2326153 V 10.95233 H 1.2326131 V 5.8578359" />
    <rect
       style="fill:none;stroke:#000000;stroke-width:0.02;stroke-miterlimit:4;stroke-dasharray:none"
       id="rect1130"
       width="6.4925609"
       height="15.99256"
       x="86.006248"
       y="167.43733" />
  </g>
</svg>
